<?xml version="1.0" encoding="UTF-8"?>
<svg width="128px" height="128px" viewBox="0 0 128 128" version="1.1" xmlns="http://www.w3.org/2000/svg" xmlns:xlink="http://www.w3.org/1999/xlink">
    <title>Logo@10x</title>
    <g id="Page-1" stroke="none" stroke-width="1" fill="none" fill-rule="evenodd">
        <g id="iPhone-13-Copy-8" transform="translate(-100, -70)" fill="#FFFFFF">
            <g id="Calculator-Icon" transform="translate(100, 70)">
                <path d="M63.9667683,17 L64.0332317,17 C72.3175029,17 79.0332317,23.7157288 79.0332317,32 C79.0332317,32.3121194 79.0234898,32.6241627 79.0040204,32.9356743 L79,33 C78.510888,40.825792 84.4584422,47.5663534 92.2842342,48.0554654 C92.8567515,48.0912478 93.4309111,48.0922993 94.0035556,48.0586144 L96.1191697,47.9341665 C104.389145,47.4476973 111.487646,53.7574761 111.974116,62.0274518 C111.991368,62.320745 112,62.6144818 112,62.9082821 L112,63.0917179 C112,71.3759892 105.284271,78.0917179 97,78.0917179 C96.7061998,78.0917179 96.4124629,78.0830861 96.1191697,78.0658335 L94.0035556,77.9413856 C86.1760246,77.4809426 79.4572941,83.4531475 78.9968511,91.2806786 C78.9631661,91.8533231 78.9642177,92.4274827 79,93 L79.0040204,93.0643257 C79.520779,101.332464 73.2370443,108.45403 64.968906,108.970789 C64.6573944,108.990258 64.3453511,109 64.0332317,109 L63.9667683,109 C55.6824971,109 48.9667683,102.284271 48.9667683,94 C48.9667683,93.6878806 48.9765102,93.3758373 48.9959796,93.0643257 L49,93 C49.489112,85.174208 43.5415578,78.4336466 35.7157658,77.9445346 C35.1432485,77.9087522 34.5690889,77.9077007 33.9964444,77.9413856 L31.8808303,78.0658335 C23.6108546,78.5523027 16.5123536,72.2425239 16.0258844,63.9725482 C16.0086319,63.679255 16,63.3855182 16,63.0917179 L16,62.9082821 C16,54.6240108 22.7157288,47.9082821 31,47.9082821 C31.2938002,47.9082821 31.5875371,47.9169139 31.8808303,47.9341665 L33.9964444,48.0586144 C41.8239754,48.5190574 48.5427059,42.5468525 49.0031489,34.7193214 C49.0368339,34.1466769 49.0357823,33.5725173 49,33 L48.9959796,32.9356743 C48.479221,24.667536 54.7629557,17.54597 63.031094,17.0292113 C63.3426056,17.0097419 63.6546489,17 63.9667683,17 Z" id="Path-2"></path>
                <path d="M124,4.39872296 L124,123.936416 L4,123.474109 L4,3.93641618 L124,4.39872296 Z M0,0 L0,128 L128,128 L128,0 L0,0 Z" id="Shape" fill-rule="nonzero"></path>
                <path d="M24.935,42 L24.935,21 L39.575,21 L39.575,25.38 L29.945,25.38 L29.945,37.62 L39.905,37.62 L39.905,42 L24.935,42 Z M27.365,33.42 L27.365,29.22 L38.255,29.22 L38.255,33.42 L27.365,33.42 Z" id="Shape" fill-rule="nonzero"></path>
                <polygon id="Path" fill-rule="nonzero" points="87.555 104 87.555 100.58 98.775 85.67 100.515 87.68 88.335 87.68 88.335 83 104.175 83 104.175 86.39 93.045 101.33 91.245 99.5 104.505 99.5 104.505 104"></polygon>
            </g>
        </g>
    </g>
</svg>